<svg xmlns="http://www.w3.org/2000/svg" viewBox="0 0 128 128" role="img" aria-labelledby="title">
  <title id="title">Google Ads</title>
  <defs><linearGradient id="b" x1="24" y1="18" x2="72" y2="105" gradientUnits="userSpaceOnUse"><stop stop-color="#63a7ff"/><stop offset="1" stop-color="#1769f3"/></linearGradient><linearGradient id="y" x1="73" y1="22" x2="108" y2="100" gradientUnits="userSpaceOnUse"><stop stop-color="#ffd44d"/><stop offset="1" stop-color="#f3a600"/></linearGradient><filter id="s" x="-30%" y="-30%" width="160%" height="170%"><feDropShadow dy="6" stdDeviation="5" flood-color="#4a57ad" flood-opacity=".25"/></filter></defs>
  <g filter="url(#s)"><path d="M53 20c8-14 28-12 35 2l29 54c5 10-2 22-13 22-6 0-11-3-14-9L52 22Z" fill="url(#y)"/><path d="M52 21 12 90c-5 9 2 20 13 20 6 0 11-3 14-8l38-68c7-14-17-27-25-13Z" fill="url(#b)"/><circle cx="25" cy="95" r="15" fill="#39a96b"/></g>
  <path d="M60 24c5-5 12-3 16 3" fill="none" stroke="#fff" stroke-opacity=".66" stroke-width="4" stroke-linecap="round"/>
</svg>
